<?xml version="1.0" standalone="no"?><!DOCTYPE svg PUBLIC "-//W3C//DTD SVG 1.1//EN" "http://www.w3.org/Graphics/SVG/1.1/DTD/svg11.dtd"><svg class="icon" width="32px" height="32.00px" viewBox="0 0 1024 1024" version="1.1" xmlns="http://www.w3.org/2000/svg"><path fill="currentColor" d="M352 64H64v288h64V128h224V64zM64 672v288h288v-64H128v-224H64zM960 352V64h-288v64h224v224h64zM672 960h288v-288h-64v224h-224v64zM815.68 324.16l-288-160a32 32 0 0 0-32 0l-288 160A32 32 0 0 0 192 352v320a32 32 0 0 0 16.32 27.84l288 160a32 32 0 0 0 32 0l288-160A32 32 0 0 0 832 672V352a32 32 0 0 0-16.32-27.84zM512 228.48L734.08 352 512 475.52 289.92 352zM256 406.4l224 124.48v246.72l-224-124.48z m288 371.2v-246.72l224-124.48v246.72z" /></svg>