<?xml version="1.0" standalone="no"?><!DOCTYPE svg PUBLIC "-//W3C//DTD SVG 1.1//EN" "http://www.w3.org/Graphics/SVG/1.1/DTD/svg11.dtd"><svg class="icon" width="32px" height="32.00px" viewBox="0 0 1024 1024" version="1.1" xmlns="http://www.w3.org/2000/svg"><path fill="currentColor" d="M832 448h-64v64h64a96.096 96.096 0 0 1 96 96v128h64v-128a160.192 160.192 0 0 0-160-160zM768 128a96 96 0 1 1-96 96 96 96 0 0 1 96-96m0-64a160 160 0 1 0 160 160 160 160 0 0 0-160-160zM736 960h-64v-64a96.096 96.096 0 0 0-96-96h-128a96.096 96.096 0 0 0-96 96v64H288v-64a160.192 160.192 0 0 1 160-160h128a160.192 160.192 0 0 1 160 160zM512 416a96 96 0 1 1-96 96 96 96 0 0 1 96-96m0-64a160 160 0 1 0 160 160 160 160 0 0 0-160-160zM256 448H192a160.192 160.192 0 0 0-160 160v128h64v-128a96.096 96.096 0 0 1 96-96h64zM256 128a96 96 0 1 1-96 96 96 96 0 0 1 96-96m0-64a160 160 0 1 0 160 160 160 160 0 0 0-160-160z" /></svg>