<?xml version="1.0" standalone="no"?><!DOCTYPE svg PUBLIC "-//W3C//DTD SVG 1.1//EN" "http://www.w3.org/Graphics/SVG/1.1/DTD/svg11.dtd"><svg class="icon" width="32px" height="32.00px" viewBox="0 0 1024 1024" version="1.1" xmlns="http://www.w3.org/2000/svg"><path fill="currentColor" d="M512 320a275.136 275.136 0 0 0-254.88 192A275.136 275.136 0 0 0 512 704a275.136 275.136 0 0 0 254.88-192A275.136 275.136 0 0 0 512 320z m0 320a128 128 0 1 1 128-128 128.16 128.16 0 0 1-128 128zM512 64a448 448 0 1 0 448 448A448 448 0 0 0 512 64z m0 704a340.928 340.928 0 0 1-319.04-248.256L191.04 512l1.92-7.744A340.928 340.928 0 0 1 512 256a340.928 340.928 0 0 1 319.04 248.256l1.92 7.744-1.92 7.744A340.928 340.928 0 0 1 512 768zM512 512m-64 0a64 64 0 1 0 128 0 64 64 0 1 0-128 0Z" /></svg>