<?xml version="1.0" standalone="no"?><!DOCTYPE svg PUBLIC "-//W3C//DTD SVG 1.1//EN" "http://www.w3.org/Graphics/SVG/1.1/DTD/svg11.dtd"><svg class="icon" width="32px" height="32.00px" viewBox="0 0 1024 1024" version="1.1" xmlns="http://www.w3.org/2000/svg"><path fill="currentColor" d="M950.624 617.376l-96-96a32 32 0 0 0-45.248 0L512 818.752V960h141.248l297.376-297.376a32 32 0 0 0 0-45.248zM626.752 896H576v-50.752l160-160L786.752 736zM832 690.752L781.248 640 832 589.248 882.752 640zM960 128h-224v64h114.752L608 434.752l-137.376-137.376a32 32 0 0 0-45.248 0L192 530.752 237.248 576 448 365.248l137.376 137.376a32 32 0 0 0 45.248 0L896 237.248V352h64zM128 64H64v832a64 64 0 0 0 64 64h256v-64H128z" /></svg>