<?xml version="1.0" standalone="no"?><!DOCTYPE svg PUBLIC "-//W3C//DTD SVG 1.1//EN" "http://www.w3.org/Graphics/SVG/1.1/DTD/svg11.dtd"><svg class="icon" width="32px" height="32.00px" viewBox="0 0 1024 1024" version="1.1" xmlns="http://www.w3.org/2000/svg"><path fill="currentColor" d="M832 64h128v128h-128zM832 256h128v128h-128zM640 64h128v128h-128zM640 256h128v128h-128zM896 512v192H128V192h384V128H128a64 64 0 0 0-64 64v512a64 64 0 0 0 64 64h256v128H256v64h512v-64h-128v-128h256a64 64 0 0 0 64-64v-192zM576 896h-128v-128h128z" /></svg>