<?xml version="1.0" standalone="no"?><!DOCTYPE svg PUBLIC "-//W3C//DTD SVG 1.1//EN" "http://www.w3.org/Graphics/SVG/1.1/DTD/svg11.dtd"><svg class="icon" width="32px" height="32.00px" viewBox="0 0 1024 1024" version="1.1" xmlns="http://www.w3.org/2000/svg"><path fill="currentColor" d="M432.064 173.248a482.4 482.4 0 0 0 371.008 582.208 355.616 355.616 0 0 1-255.2 108.48c-4.416 0-8.896 0.16-13.376 0a355.008 355.008 0 0 1-102.4-690.688M479.36 96a32.064 32.064 0 0 0-5.6 0.512 419.072 419.072 0 0 0 58.4 831.392c5.248 0.192 10.496 0 15.68 0a418.304 418.304 0 0 0 342.496-177.76 32.32 32.32 0 0 0-25.056-50.08A418.56 418.56 0 0 1 508.48 140.16 32.48 32.48 0 0 0 479.36 96z" /></svg>