<?xml version="1.0" standalone="no"?><!DOCTYPE svg PUBLIC "-//W3C//DTD SVG 1.1//EN" "http://www.w3.org/Graphics/SVG/1.1/DTD/svg11.dtd"><svg class="icon" width="32px" height="32.00px" viewBox="0 0 1024 1024" version="1.1" xmlns="http://www.w3.org/2000/svg"><path fill="currentColor" d="M767.392 781.856A126.56 126.56 0 0 0 832 800a128.16 128.16 0 0 0 128-128 126.176 126.176 0 0 0-4.8-32.736l-77.952 77.984a64 64 0 1 1-90.496-90.496l77.984-77.984A126.4 126.4 0 0 0 832 544a128.16 128.16 0 0 0-128 128 126.528 126.528 0 0 0 18.144 64.64L544 914.72 589.248 960zM832 128h-128V64h-64v64h-256V64h-64v64H192a64 64 0 0 0-64 64v640a64 64 0 0 0 64 64h256v-64H192V192h128v64h64V192h256v64h64V192h128v256h64V192a64 64 0 0 0-64-64z" /></svg>