<?xml version="1.0" standalone="no"?><!DOCTYPE svg PUBLIC "-//W3C//DTD SVG 1.1//EN" "http://www.w3.org/Graphics/SVG/1.1/DTD/svg11.dtd"><svg class="icon" width="32px" height="32.00px" viewBox="0 0 1024 1024" version="1.1" xmlns="http://www.w3.org/2000/svg"><path fill="currentColor" d="M640 640l44.8 44.8-83.2 83.2H896v64h-294.4l83.2 83.2L640 960l-160-160zM448 480h256v64h-256zM448 256h256v64h-256zM416 896H256v-128h64v-64H256v-160h64v-64H256v-160h64V256H256V128h576v512h64V128c0-35.2-28.8-64-64-64H256c-35.2 0-64 28.8-64 64v128H128v64h64v160H128v64h64v160H128v64h64v128c0 35.2 28.8 64 64 64h160v-64z" /></svg>