<?xml version="1.0" standalone="no"?><!DOCTYPE svg PUBLIC "-//W3C//DTD SVG 1.1//EN" "http://www.w3.org/Graphics/SVG/1.1/DTD/svg11.dtd"><svg class="icon" width="32px" height="32.00px" viewBox="0 0 1024 1024" version="1.1" xmlns="http://www.w3.org/2000/svg"><path fill="currentColor" d="M864 896V512h-256v384h-128V384H224v512H128V64H64v832a64 64 0 0 0 64 64h832v-64z m-448 0H288V448h128z m384 0h-128V576h128zM729.152 448a63.616 63.616 0 0 1-37.76-12.384L358.56 191.584 263.744 320 212.384 281.792l95.424-128a63.936 63.936 0 0 1 87.968-14.272L729.248 384l115.328-155.52L896 266.56l-115.328 155.584a64.032 64.032 0 0 1-51.52 25.856z" /></svg>