<?xml version="1.0" standalone="no"?><!DOCTYPE svg PUBLIC "-//W3C//DTD SVG 1.1//EN" "http://www.w3.org/Graphics/SVG/1.1/DTD/svg11.dtd"><svg class="icon" width="32px" height="32.00px" viewBox="0 0 1024 1024" version="1.1" xmlns="http://www.w3.org/2000/svg"><path fill="currentColor" d="M146.752 896l229.696-191.936 255.808 62.016a64.672 64.672 0 0 0 42.048-3.84L896 658.56l-27.136-57.984-221.312 103.328-255.808-62.016a64.096 64.096 0 0 0-55.68 12.288L128 828.224V655.68l248.448-207.616 255.808 62.016a64.672 64.672 0 0 0 42.048-3.84L896 402.56l-27.104-57.984-221.376 103.328-255.808-62.016a64.16 64.16 0 0 0-55.68 12.288L128 572.224V399.68l248.448-207.616 255.808 62.016a64.672 64.672 0 0 0 42.048-3.84L896 146.72l-27.072-57.984-221.376 103.168-255.808-62.016a64.096 64.096 0 0 0-55.68 12.288L128 316.224V64H64v832a64 64 0 0 0 64 64h832v-64z" /></svg>