<?xml version="1.0" standalone="no"?><!DOCTYPE svg PUBLIC "-//W3C//DTD SVG 1.1//EN" "http://www.w3.org/Graphics/SVG/1.1/DTD/svg11.dtd"><svg class="icon" width="32px" height="32.00px" viewBox="0 0 1024 1024" version="1.1" xmlns="http://www.w3.org/2000/svg"><path fill="currentColor" d="M567.68 960L512 928l128-224h192a64 64 0 0 0 64-64V256a64 64 0 0 0-64-64H192a64 64 0 0 0-64 64v384a64 64 0 0 0 64 64h288v64H192a128 128 0 0 1-128-128V256a128 128 0 0 1 128-128h640a128 128 0 0 1 128 128v384a128 128 0 0 1-128 128h-154.88zM256 320h512v64H256zM256 512h320v64H256z" /></svg>