<?xml version="1.0" standalone="no"?><!DOCTYPE svg PUBLIC "-//W3C//DTD SVG 1.1//EN" "http://www.w3.org/Graphics/SVG/1.1/DTD/svg11.dtd"><svg class="icon" width="32px" height="32.00px" viewBox="0 0 1024 1024" version="1.1" xmlns="http://www.w3.org/2000/svg"><path fill="currentColor" d="M1014.624 649.376l-96-96a32 32 0 0 0-45.248 0L576 850.752V992h141.248l297.376-297.376a32 32 0 0 0 0-45.248z m-237.248 192L690.752 928H640v-50.752l86.624-86.624L800 717.248 850.752 768l-73.376 73.376zM896 722.752L845.248 672 896 621.248 946.752 672 896 722.752zM640 640v-64h-128v-224h320v64h64V192c0-52.928-43.072-96-96-96H160C107.072 96 64 139.072 64 192v640c0 52.928 43.072 96 96 96h352v-288h128z m-192-64H128v-224h320v224zM160 160h640a32 32 0 0 1 32 32v96H128V192a32 32 0 0 1 32-32z m288 704H160a32 32 0 0 1-32-32v-192h320v224z" /></svg>