<?xml version="1.0" standalone="no"?><!DOCTYPE svg PUBLIC "-//W3C//DTD SVG 1.1//EN" "http://www.w3.org/Graphics/SVG/1.1/DTD/svg11.dtd"><svg class="icon" width="32px" height="32.00px" viewBox="0 0 1024 1024" version="1.1" xmlns="http://www.w3.org/2000/svg"><path fill="currentColor" d="M645.44 608l-82.88 82.88L608 736l128-128-128-128-45.44 45.12L645.44 608zM378.56 608l82.88-82.88L416 480l-128 128 128 128 45.44-45.12L378.56 608zM288 256m-32 0a32 32 0 1 0 64 0 32 32 0 1 0-64 0ZM192 256m-32 0a32 32 0 1 0 64 0 32 32 0 1 0-64 0ZM896 128H128c-35.296 0-64 28.704-64 64v640c0 35.296 28.704 64 64 64h768c35.296 0 64-28.704 64-64V192c0-35.296-28.704-64-64-64z m0 64v128H128V192h768zM128 832V384h768v448H128z" /></svg>