<?xml version="1.0" standalone="no"?><!DOCTYPE svg PUBLIC "-//W3C//DTD SVG 1.1//EN" "http://www.w3.org/Graphics/SVG/1.1/DTD/svg11.dtd"><svg t="1677637984321" class="icon" viewBox="0 0 1024 1024" version="1.1" xmlns="http://www.w3.org/2000/svg" p-id="1048" xmlns:xlink="http://www.w3.org/1999/xlink" width="30" height="30"><path d="M752 476.448l0.112-0.128-160-144-0.112 0.128A47.744 47.744 0 0 0 560 320a48 48 0 0 0-48 48c0 14.16 6.256 26.768 16 35.552l-0.112 0.128L594.912 464H304a48 48 0 1 0 0 96h290.912l-67.008 60.32 0.096 0.112c-9.76 8.8-16 21.408-16 35.568a48 48 0 0 0 48 48c12.336 0 23.488-4.784 32-12.432l0.112 0.128 160-144-0.112-0.128c9.744-8.8 16-21.392 16-35.568s-6.256-26.752-16-35.552zM512 0C229.232 0 0 229.232 0 512s229.232 512 512 512 512-229.232 512-512S794.768 0 512 0z m0 928C282.256 928 96 741.744 96 512 96 282.24 282.256 96 512 96s416 186.24 416 416c0 229.744-186.256 416-416 416z" fill="currentColor" p-id="1049"></path></svg>