<?xml version="1.0" standalone="no"?><!DOCTYPE svg PUBLIC "-//W3C//DTD SVG 1.1//EN" "http://www.w3.org/Graphics/SVG/1.1/DTD/svg11.dtd"><svg t="1677723761606" class="icon" viewBox="0 0 1024 1024" version="1.1" xmlns="http://www.w3.org/2000/svg" p-id="936" xmlns:xlink="http://www.w3.org/1999/xlink" width="30" height="30"><path d="M656 512c-14.16 0-26.768 6.256-35.568 16l-0.128-0.112L560 594.912V304a48 48 0 1 0-96 0v290.912l-60.32-67.008-0.128 0.096A47.68 47.68 0 0 0 368 512a48 48 0 0 0-48 48c0 12.336 4.784 23.488 12.448 32l-0.128 0.128 144 160 0.128-0.128c8.784 9.744 21.376 16 35.552 16 14.16 0 26.768-6.256 35.568-16l0.128 0.112 144-160-0.128-0.112A47.808 47.808 0 0 0 704 560a48 48 0 0 0-48-48zM512 0C229.232 0 0 229.232 0 512s229.232 512 512 512 512-229.232 512-512S794.768 0 512 0z m0 928C282.256 928 96 741.744 96 512 96 282.24 282.256 96 512 96s416 186.24 416 416c0 229.744-186.256 416-416 416z" fill="currentColor" p-id="937"></path></svg>