<?xml version="1.0" standalone="no"?><!DOCTYPE svg PUBLIC "-//W3C//DTD SVG 1.1//EN" "http://www.w3.org/Graphics/SVG/1.1/DTD/svg11.dtd"><svg t="1677637967702" class="icon" viewBox="0 0 1024 1024" version="1.1" xmlns="http://www.w3.org/2000/svg" p-id="906" xmlns:xlink="http://www.w3.org/1999/xlink" width="30" height="30"><path d="M720 464H429.088l67.024-60.32-0.112-0.128A47.68 47.68 0 0 0 512 368a48 48 0 0 0-48-48c-12.352 0-23.488 4.8-32 12.448l-0.112-0.128-160 144 0.112 0.128c-9.76 8.784-16 21.376-16 35.552s6.256 26.768 16 35.568l-0.112 0.128 160 144 0.112-0.128A47.696 47.696 0 0 0 464 704a48 48 0 0 0 48-48c0-14.16-6.256-26.768-16-35.568l0.112-0.128L429.088 560H720a48 48 0 1 0 0-96zM512 0C229.232 0 0 229.232 0 512s229.232 512 512 512 512-229.232 512-512S794.768 0 512 0z m0 928C282.256 928 96 741.744 96 512 96 282.24 282.256 96 512 96s416 186.24 416 416c0 229.744-186.256 416-416 416z" fill="currentColor" p-id="907"></path></svg>