<?xml version="1.0" standalone="no"?><!DOCTYPE svg PUBLIC "-//W3C//DTD SVG 1.1//EN" "http://www.w3.org/Graphics/SVG/1.1/DTD/svg11.dtd"><svg class="icon" width="32px" height="32.00px" viewBox="0 0 1024 1024" version="1.1" xmlns="http://www.w3.org/2000/svg"><path fill="currentColor" d="M512 64C262.4 64 64 262.4 64 512s198.4 448 448 448 448-198.4 448-448S761.6 64 512 64z m0 832C300.8 896 128 723.2 128 512S300.8 128 512 128s384 172.8 384 384-172.8 384-384 384zM684.8 736L512 563.2 339.2 736 288 684.8l172.8-172.8L288 339.2 339.2 288l172.8 172.8L684.8 288l51.2 51.2-172.8 172.8 172.8 172.8z" /></svg>