<?xml version="1.0" standalone="no"?><!DOCTYPE svg PUBLIC "-//W3C//DTD SVG 1.1//EN" "http://www.w3.org/Graphics/SVG/1.1/DTD/svg11.dtd"><svg class="icon" width="32px" height="32.00px" viewBox="0 0 1024 1024" version="1.1" xmlns="http://www.w3.org/2000/svg"><path fill="currentColor" d="M320 384m-64 0a64 64 0 1 0 128 0 64 64 0 1 0-128 0ZM512 288m-64 0a64 64 0 1 0 128 0 64 64 0 1 0-128 0ZM704 384m-64 0a64 64 0 1 0 128 0 64 64 0 1 0-128 0ZM736 576m-64 0a64 64 0 1 0 128 0 64 64 0 1 0-128 0ZM608 736m-64 0a64 64 0 1 0 128 0 64 64 0 1 0-128 0ZM529.28 64A448 448 0 0 0 64 512a154.24 154.24 0 0 0 194.88 148.8l35.84-9.92a96 96 0 0 1 121.28 92.8V864a96 96 0 0 0 96 96 448 448 0 0 0 448-465.28A449.6 449.6 0 0 0 529.28 64z m259.52 713.92A381.76 381.76 0 0 1 512 896a32 32 0 0 1-32-32v-120.32a160 160 0 0 0-160-160 162.24 162.24 0 0 0-42.56 5.76l-35.84 9.92A90.24 90.24 0 0 1 128 512 384 384 0 0 1 527.04 128 389.76 389.76 0 0 1 896 496.96a380.48 380.48 0 0 1-107.2 281.28z" /></svg>