<?xml version="1.0" standalone="no"?><!DOCTYPE svg PUBLIC "-//W3C//DTD SVG 1.1//EN" "http://www.w3.org/Graphics/SVG/1.1/DTD/svg11.dtd"><svg class="icon" width="32px" height="32.00px" viewBox="0 0 1024 1024" version="1.1" xmlns="http://www.w3.org/2000/svg"><path fill="currentColor" d="M768 672h64v160h-64zM640 512h64v320h-64zM352 832a160.192 160.192 0 0 1-160-160h64a96 96 0 1 0 96-96v-64a160 160 0 0 1 0 320zM896 64H128a64.064 64.064 0 0 0-64 64v768a64.064 64.064 0 0 0 64 64h768a64.096 64.096 0 0 0 64-64V128a64.064 64.064 0 0 0-64-64z m0 288H448V128h448zM384 128v224H128V128zM128 896V416h768l0.064 480z" /></svg>