<?xml version="1.0" standalone="no"?><!DOCTYPE svg PUBLIC "-//W3C//DTD SVG 1.1//EN" "http://www.w3.org/Graphics/SVG/1.1/DTD/svg11.dtd"><svg class="icon" width="32px" height="32.00px" viewBox="0 0 1024 1024" version="1.1" xmlns="http://www.w3.org/2000/svg"><path fill="currentColor" d="M160 800v-293.504l-114.752 114.752L0 576l192-192 192 192-45.248 45.248L224 506.496V800h384v64H224a64.064 64.064 0 0 1-64-64zM768 704h128a64.064 64.064 0 0 1 64 64v128a64.064 64.064 0 0 1-64 64h-128a64.064 64.064 0 0 1-64-64v-128a64.064 64.064 0 0 1 64-64z m128 192v-128h-128.064L768 896zM864 192v293.504l114.752-114.752L1024 416l-192 192-192-192 45.248-45.248L800 485.504V192H416V128h384a64.064 64.064 0 0 1 64 64zM64 192h192v64H64zM64 64h256v64H64z" /></svg>