<?xml version="1.0" standalone="no"?><!DOCTYPE svg PUBLIC "-//W3C//DTD SVG 1.1//EN" "http://www.w3.org/Graphics/SVG/1.1/DTD/svg11.dtd"><svg class="icon" width="32px" height="32.00px" viewBox="0 0 1024 1024" version="1.1" xmlns="http://www.w3.org/2000/svg"><path fill="currentColor" d="M704 768m-64 0a64 64 0 1 0 128 0 64 64 0 1 0-128 0ZM952.864 751.328A276.48 276.48 0 0 0 704 576a276.48 276.48 0 0 0-248.864 175.328L448 768l7.136 16.672A276.48 276.48 0 0 0 704 960a276.48 276.48 0 0 0 248.864-175.328L960 768zM704 896a128 128 0 1 1 128-128 128.16 128.16 0 0 1-128 128zM224 544h160v64H224zM224 384h384v64H224zM224 224h384v64H224zM704 64H128a64.192 64.192 0 0 0-64 64v768a64.192 64.192 0 0 0 64 64h256v-64H128V128h576v352h64V128a64.192 64.192 0 0 0-64-64z" /></svg>