<?xml version="1.0" standalone="no"?><!DOCTYPE svg PUBLIC "-//W3C//DTD SVG 1.1//EN" "http://www.w3.org/Graphics/SVG/1.1/DTD/svg11.dtd"><svg class="icon" width="32px" height="32.00px" viewBox="0 0 1024 1024" version="1.1" xmlns="http://www.w3.org/2000/svg"><path fill="currentColor" d="M704 192h128v128h-128zM224 224m-32 0a32 32 0 1 0 64 0 32 32 0 1 0-64 0ZM800 800m-32 0a32 32 0 1 0 64 0 32 32 0 1 0-64 0ZM800 672m-32 0a32 32 0 1 0 64 0 32 32 0 1 0-64 0ZM800 544m-32 0a32 32 0 1 0 64 0 32 32 0 1 0-64 0ZM704 544v-64h-64v-32a64.064 64.064 0 0 0-64-64h-32v-64h-64v64h-64v-64h-64v64h-32a64.064 64.064 0 0 0-64 64v32H192v64h64v64H192v64h64v32a64.064 64.064 0 0 0 64 64h32v64h64v-64h64v64h64v-64h32a64.064 64.064 0 0 0 64-64v-32h64v-64h-64v-64z m-128 160h-256v-256h256zM896 960H128a64.064 64.064 0 0 1-64-64V128a64.064 64.064 0 0 1 64-64h768a64.064 64.064 0 0 1 64 64v768a64.064 64.064 0 0 1-64 64zM128 128v768h768V128z" /></svg>