<?xml version="1.0" standalone="no"?><!DOCTYPE svg PUBLIC "-//W3C//DTD SVG 1.1//EN" "http://www.w3.org/Graphics/SVG/1.1/DTD/svg11.dtd"><svg class="icon" width="32px" height="32.00px" viewBox="0 0 1024 1024" version="1.1" xmlns="http://www.w3.org/2000/svg"><path fill="currentColor" d="M800 672l224 160-224 160V672zM645.44 608l-82.88 82.88L608 736l128-128-128-128-45.44 45.12L645.44 608zM378.56 608l82.88-82.88L416 480l-128 128 128 128 45.44-45.12L378.56 608zM288 256m-32 0a32 32 0 1 0 64 0 32 32 0 1 0-64 0ZM192 256m-32 0a32 32 0 1 0 64 0 32 32 0 1 0-64 0ZM672 832H128V384h768v224h64V192c0-35.296-28.704-64-64-64H128c-35.296 0-64 28.704-64 64v640c0 35.296 28.704 64 64 64h544v-64zM128 192h768v128H128V192z" /></svg>