<?xml version="1.0" standalone="no"?><!DOCTYPE svg PUBLIC "-//W3C//DTD SVG 1.1//EN" "http://www.w3.org/Graphics/SVG/1.1/DTD/svg11.dtd"><svg class="icon" width="32px" height="32.00px" viewBox="0 0 1024 1024" version="1.1" xmlns="http://www.w3.org/2000/svg"><path fill="currentColor" d="M704 352l-45.12 45.12L741.44 480H282.56l82.56-82.88L320 352l-160 160 160 160 45.12-45.12L282.56 544h458.88l-82.56 82.88L704 672l160-160-160-160zM896 960H128a64.064 64.064 0 0 1-64-64V128a64.064 64.064 0 0 1 64-64h768a64.064 64.064 0 0 1 64 64v768a64.064 64.064 0 0 1-64 64zM128 128v768h768V128z" /></svg>