<?xml version="1.0" standalone="no"?><!DOCTYPE svg PUBLIC "-//W3C//DTD SVG 1.1//EN" "http://www.w3.org/Graphics/SVG/1.1/DTD/svg11.dtd"><svg class="icon" width="32px" height="32.00px" viewBox="0 0 1024 1024" version="1.1" xmlns="http://www.w3.org/2000/svg"><path fill="currentColor" d="M384 128H192a64 64 0 0 0-64 64v192a64 64 0 0 0 64 64h192a64 64 0 0 0 64-64V192a64 64 0 0 0-64-64z m0 256H192V192h192zM832 128h-192a64 64 0 0 0-64 64v192a64 64 0 0 0 64 64h192a64 64 0 0 0 64-64V192a64 64 0 0 0-64-64z m0 256h-192V192h192zM384 576H192a64 64 0 0 0-64 64v192a64 64 0 0 0 64 64h192a64 64 0 0 0 64-64v-192a64 64 0 0 0-64-64z m0 256H192v-192h192zM832 576h-192a64 64 0 0 0-64 64v192a64 64 0 0 0 64 64h192a64 64 0 0 0 64-64v-192a64 64 0 0 0-64-64z m0 256h-192v-192h192z" /></svg>