<?xml version="1.0" standalone="no"?><!DOCTYPE svg PUBLIC "-//W3C//DTD SVG 1.1//EN" "http://www.w3.org/Graphics/SVG/1.1/DTD/svg11.dtd"><svg class="icon" width="32px" height="32.00px" viewBox="0 0 1024 1024" version="1.1" xmlns="http://www.w3.org/2000/svg"><path fill="currentColor" d="M960 768v-64h-67.232a158.976 158.976 0 0 0-23.424-56.096l47.68-47.68-45.248-45.248-47.68 47.68A158.976 158.976 0 0 0 768 579.232V512h-64v67.232a158.976 158.976 0 0 0-56.096 23.424l-47.68-47.68-45.248 45.248 47.68 47.68A158.976 158.976 0 0 0 579.232 704H512v64h67.232a158.976 158.976 0 0 0 23.424 56.096l-47.68 47.68 45.248 45.248 47.68-47.68a158.976 158.976 0 0 0 56.096 23.424V960h64v-67.232a158.976 158.976 0 0 0 56.096-23.424l47.68 47.68 45.248-45.248-47.68-47.68A158.976 158.976 0 0 0 892.768 768z m-224 64a96 96 0 1 1 96-96 96.096 96.096 0 0 1-96 96zM896 128H128a64.064 64.064 0 0 0-64 64v640a64.064 64.064 0 0 0 64 64h320v-64H128V384h768v96h64V192a64.064 64.064 0 0 0-64-64z m0 192H128V192h768zM640 256m-32 0a32 32 0 1 0 64 0 32 32 0 1 0-64 0ZM736 256m-32 0a32 32 0 1 0 64 0 32 32 0 1 0-64 0ZM832 256m-32 0a32 32 0 1 0 64 0 32 32 0 1 0-64 0Z" /></svg>