<?xml version="1.0" standalone="no"?><!DOCTYPE svg PUBLIC "-//W3C//DTD SVG 1.1//EN" "http://www.w3.org/Graphics/SVG/1.1/DTD/svg11.dtd"><svg class="icon" width="32px" height="32.00px" viewBox="0 0 1024 1024" version="1.1" xmlns="http://www.w3.org/2000/svg"><path fill="currentColor" d="M640 256m-32 0a32 32 0 1 0 64 0 32 32 0 1 0-64 0ZM736 256m-32 0a32 32 0 1 0 64 0 32 32 0 1 0-64 0ZM832 256m-32 0a32 32 0 1 0 64 0 32 32 0 1 0-64 0ZM896 128H128a64.064 64.064 0 0 0-64 64v640a64.064 64.064 0 0 0 64 64h768a64.064 64.064 0 0 0 64-64V192a64.064 64.064 0 0 0-64-64z m0 64v128H128V192zM128 384h192v448H128z m256 448V384h512v448z" /></svg>