<?xml version="1.0" standalone="no"?><!DOCTYPE svg PUBLIC "-//W3C//DTD SVG 1.1//EN" "http://www.w3.org/Graphics/SVG/1.1/DTD/svg11.dtd"><svg class="icon" width="32px" height="32.00px" viewBox="0 0 1024 1024" version="1.1" xmlns="http://www.w3.org/2000/svg"><path fill="currentColor" d="M531.584 70.848a32.32 32.32 0 0 0-39.744 0L32 429.408l39.776 50.304L128 435.872V832a64.128 64.128 0 0 0 64 64h640a64.128 64.128 0 0 0 64-64V436.16L952.224 480 992 429.696zM576 832h-128v-256h128z m64 0v-256a64.064 64.064 0 0 0-64-64h-128a64.064 64.064 0 0 0-64 64v256H192V385.984l320-249.28 320 249.6V832z" /></svg>