<?xml version="1.0" standalone="no"?><!DOCTYPE svg PUBLIC "-//W3C//DTD SVG 1.1//EN" "http://www.w3.org/Graphics/SVG/1.1/DTD/svg11.dtd"><svg class="icon" width="32px" height="32.00px" viewBox="0 0 1024 1024" version="1.1" xmlns="http://www.w3.org/2000/svg"><path fill="currentColor" d="M512 896h-96c-124.8 0-224-99.2-224-224v-128h64v128c0 89.6 70.4 160 160 160h96v64zM896 960h70.4l-147.2-352h-70.4l-147.2 352H672l25.6-64h169.6l28.8 64z m-169.6-128l57.6-140.8 57.6 140.8h-115.2zM896 480h-64v-128c0-89.6-70.4-160-160-160h-128V128h128c124.8 0 224 99.2 224 224v128zM448 160V96H288V32H224v64H64v64h262.4c-6.4 28.8-25.6 80-70.4 128-19.2-22.4-35.2-44.8-44.8-64H137.6c12.8 32 35.2 70.4 67.2 105.6-25.6 22.4-64 41.6-108.8 57.6l22.4 60.8c57.6-22.4 102.4-48 137.6-73.6 35.2 28.8 80 54.4 137.6 73.6l22.4-60.8c-44.8-16-83.2-38.4-112-57.6 60.8-64 80-131.2 86.4-169.6H448z" /></svg>