<?xml version="1.0" standalone="no"?><!DOCTYPE svg PUBLIC "-//W3C//DTD SVG 1.1//EN" "http://www.w3.org/Graphics/SVG/1.1/DTD/svg11.dtd"><svg class="icon" width="32px" height="32.00px" viewBox="0 0 1024 1024" version="1.1" xmlns="http://www.w3.org/2000/svg"><path fill="currentColor" d="M352 768h320v64H352zM416 896h192v64h-192zM512 64A320 320 0 0 0 192 384a294.08 294.08 0 0 0 110.72 243.84c32 29.76 49.28 46.72 49.28 76.16h64c0-58.88-35.52-91.84-70.08-123.52A230.4 230.4 0 0 1 256 384a256 256 0 0 1 512 0 230.4 230.4 0 0 1-90.24 196.48c-34.24 32-69.76 64-69.76 123.52h64c0-29.44 16.96-46.4 49.28-76.48A293.76 293.76 0 0 0 832 384 320 320 0 0 0 512 64z" /></svg>