<?xml version="1.0" standalone="no"?><!DOCTYPE svg PUBLIC "-//W3C//DTD SVG 1.1//EN" "http://www.w3.org/Graphics/SVG/1.1/DTD/svg11.dtd"><svg class="icon" width="32px" height="32.00px" viewBox="0 0 1024 1024" version="1.1" xmlns="http://www.w3.org/2000/svg"><path fill="currentColor" d="M128 640v64h146.752L64 914.752 109.248 960 320 749.248V896h64v-256H128zM608 448a96 96 0 1 0-96-96 96 96 0 0 0 96 96z m0-128a32 32 0 1 1-32 32 32 32 0 0 1 32-32zM832 128H192a64 64 0 0 0-64 64v320h64V192h640v485.44l-114.88-114.88a64 64 0 0 0-90.24 0L576 613.44 378.56 416l-45.248 45.28L448 576l82.88 82.88a64 64 0 0 0 90.24 0L672 608l160 160v64H512v64h320a64 64 0 0 0 64-64V192a64 64 0 0 0-64-64z" /></svg>