<?xml version="1.0" standalone="no"?><!DOCTYPE svg PUBLIC "-//W3C//DTD SVG 1.1//EN" "http://www.w3.org/Graphics/SVG/1.1/DTD/svg11.dtd"><svg class="icon" width="32px" height="32.00px" viewBox="0 0 1024 1024" version="1.1" xmlns="http://www.w3.org/2000/svg"><path fill="currentColor" d="M512 768a31.904 31.904 0 0 1-15.168-3.84l-416-224 30.336-56.32L512 699.648l400.832-215.808 30.336 56.32-416 224A31.904 31.904 0 0 1 512 768zM512 960a31.904 31.904 0 0 1-15.168-3.84l-416-224 30.336-56.32L512 891.648l400.832-215.808 30.336 56.32-416 224A31.904 31.904 0 0 1 512 960zM512 576a31.904 31.904 0 0 1-15.168-3.84l-416-224a32 32 0 0 1 0-56.32l416-224a31.936 31.936 0 0 1 30.336 0l416 224a32 32 0 0 1 0 56.32l-416 224A31.904 31.904 0 0 1 512 576zM163.52 320L512 507.648 860.48 320 512 132.352z" /></svg>