<?xml version="1.0" standalone="no"?><!DOCTYPE svg PUBLIC "-//W3C//DTD SVG 1.1//EN" "http://www.w3.org/Graphics/SVG/1.1/DTD/svg11.dtd"><svg class="icon" width="32px" height="32.00px" viewBox="0 0 1024 1024" version="1.1" xmlns="http://www.w3.org/2000/svg"><path fill="currentColor" d="M256 448h192v64H256zM256 192h384v64H256zM256 320h384v64H256zM256 768h192v64H256zM864 800h-192a96 96 0 0 0-96 96v64h64v-64a32 32 0 0 1 32-32h192a32 32 0 0 1 32 32v64h64v-64a96 96 0 0 0-96-96zM768 768a128 128 0 1 0-128-128 128 128 0 0 0 128 128z m0-192a64 64 0 1 1-64 64 64 64 0 0 1 64-64zM448 960H192a64.064 64.064 0 0 1-64-64V128a64.064 64.064 0 0 1 64-64h512a64.064 64.064 0 0 1 64 64v320h-64V128H192v768h256z" /></svg>