<?xml version="1.0" standalone="no"?><!DOCTYPE svg PUBLIC "-//W3C//DTD SVG 1.1//EN" "http://www.w3.org/Graphics/SVG/1.1/DTD/svg11.dtd"><svg class="icon" width="32px" height="32.00px" viewBox="0 0 1024 1024" version="1.1" xmlns="http://www.w3.org/2000/svg"><path fill="currentColor" d="M950.624 617.376l-96-96a32 32 0 0 0-45.248 0L512 818.752V960h141.248l297.376-297.376a32 32 0 0 0 0-45.248zM626.752 896H576v-50.752l160-160L786.752 736zM832 690.752L781.248 640 832 589.248 882.752 640zM544 480h-192a96 96 0 0 0-96 96v32h64v-32a32 32 0 0 1 32-32h192a32 32 0 0 1 32 32v32h64v-32a96 96 0 0 0-96-96zM448 448a128 128 0 1 0-128-128 128 128 0 0 0 128 128z m0-192a64 64 0 1 1-64 64 64 64 0 0 1 64-64zM384 960H192a64.064 64.064 0 0 1-64-64V128a64.064 64.064 0 0 1 64-64h512a64.064 64.064 0 0 1 64 64v320h-64V128H192v768h192z" /></svg>