<?xml version="1.0" standalone="no"?><!DOCTYPE svg PUBLIC "-//W3C//DTD SVG 1.1//EN" "http://www.w3.org/Graphics/SVG/1.1/DTD/svg11.dtd"><svg class="icon" width="32px" height="32.00px" viewBox="0 0 1024 1024" version="1.1" xmlns="http://www.w3.org/2000/svg"><path fill="currentColor" d="M480 64h64v160h-64zM693.984 284.8l112.192-112.224 45.248 45.28-112.192 112.192zM800 480h160v64h-160zM693.984 739.2l45.248-45.248 112.192 112.192-45.248 45.28zM480 800h64v160h-64zM172.608 806.144L284.8 693.952l45.248 45.28-112.192 112.192zM64 480h160v64H64zM172.608 217.856l45.248-45.28L330.048 284.8 284.8 330.048zM512 384a128 128 0 1 1-128 128 128.16 128.16 0 0 1 128-128m0-64a192 192 0 1 0 192 192 192 192 0 0 0-192-192z" /></svg>