<?xml version="1.0" standalone="no"?><!DOCTYPE svg PUBLIC "-//W3C//DTD SVG 1.1//EN" "http://www.w3.org/Graphics/SVG/1.1/DTD/svg11.dtd"><svg class="icon" width="32px" height="32.00px" viewBox="0 0 1024 1024" version="1.1" xmlns="http://www.w3.org/2000/svg"><path fill="currentColor" d="M832 512a317.696 317.696 0 0 0-36.48-147.776l-47.84 47.872A254.336 254.336 0 0 1 768 512zM749.248 320L704 274.752 553.12 425.6A94.912 94.912 0 0 0 512 416a96 96 0 1 0 96 96 94.912 94.912 0 0 0-9.6-41.12zM512 544a32 32 0 1 1 32-32 32.032 32.032 0 0 1-32 32zM512 256a254.464 254.464 0 0 1 99.904 20.32l47.872-47.872A319.552 319.552 0 0 0 192 512h64a256.32 256.32 0 0 1 256-256zM512 960a448 448 0 1 1 448-448 448.512 448.512 0 0 1-448 448z m0-832a384 384 0 1 0 384 384A384.448 384.448 0 0 0 512 128z" /></svg>