<?xml version="1.0" standalone="no"?><!DOCTYPE svg PUBLIC "-//W3C//DTD SVG 1.1//EN" "http://www.w3.org/Graphics/SVG/1.1/DTD/svg11.dtd"><svg class="icon" width="32px" height="32.00px" viewBox="0 0 1024 1024" version="1.1" xmlns="http://www.w3.org/2000/svg"><path fill="currentColor" d="M960 640a443.328 443.328 0 0 0-71.36-240.928l-46.208 46.24A380.544 380.544 0 0 1 896 640zM896 301.248L850.752 256l-274.144 274.144A126.464 126.464 0 0 0 512 512a128 128 0 1 0 128 128 126.496 126.496 0 0 0-18.144-64.64zM512 704a64 64 0 1 1 64-64 64.064 64.064 0 0 1-64 64zM512 256a381.088 381.088 0 0 1 194.656 53.568l46.528-46.496A447.264 447.264 0 0 0 64 640h64A384.448 384.448 0 0 1 512 256z" /></svg>