<?xml version="1.0" standalone="no"?><!DOCTYPE svg PUBLIC "-//W3C//DTD SVG 1.1//EN" "http://www.w3.org/Graphics/SVG/1.1/DTD/svg11.dtd"><svg class="icon" width="32px" height="32.00px" viewBox="0 0 1024 1024" version="1.1" xmlns="http://www.w3.org/2000/svg"><path fill="currentColor" d="M128 384H64V128a64.064 64.064 0 0 1 64-64h256v64H128zM384 960H128a64.064 64.064 0 0 1-64-64v-256h64v256h256zM896 960h-256v-64h256v-256h64v256a64.064 64.064 0 0 1-64 64zM960 384h-64V128h-256V64h256a64.064 64.064 0 0 1 64 64zM512 704a192 192 0 1 1 192-192 192.224 192.224 0 0 1-192 192z m0-320a128 128 0 1 0 128 128 128.16 128.16 0 0 0-128-128z"  /><path fill="currentColor" d="M512 512m-64 0a64 64 0 1 0 128 0 64 64 0 1 0-128 0Z"  /><path fill="currentColor" d="M512 224m-32 0a32 32 0 1 0 64 0 32 32 0 1 0-64 0Z"  /><path fill="currentColor" d="M512 96m-32 0a32 32 0 1 0 64 0 32 32 0 1 0-64 0Z"  /><path fill="currentColor" d="M512 800m-32 0a32 32 0 1 0 64 0 32 32 0 1 0-64 0Z"  /><path fill="currentColor" d="M512 928m-32 0a32 32 0 1 0 64 0 32 32 0 1 0-64 0Z"  /><path fill="currentColor" d="M800 512m-32 0a32 32 0 1 0 64 0 32 32 0 1 0-64 0Z"  /><path fill="currentColor" d="M928 512m-32 0a32 32 0 1 0 64 0 32 32 0 1 0-64 0Z"  /><path fill="currentColor" d="M224 512m-32 0a32 32 0 1 0 64 0 32 32 0 1 0-64 0Z"  /><path fill="currentColor" d="M96 512m-32 0a32 32 0 1 0 64 0 32 32 0 1 0-64 0Z"  /><path fill="currentColor" d="M308.352 308.352m-32 0a32 32 0 1 0 64 0 32 32 0 1 0-64 0Z"  /><path fill="currentColor" d="M224 224m-32 0a32 32 0 1 0 64 0 32 32 0 1 0-64 0Z"  /><path fill="currentColor" d="M715.648 715.648m-32 0a32 32 0 1 0 64 0 32 32 0 1 0-64 0Z"  /><path fill="currentColor" d="M800 800m-32 0a32 32 0 1 0 64 0 32 32 0 1 0-64 0Z"  /><path fill="currentColor" d="M715.648 308.352m-32 0a32 32 0 1 0 64 0 32 32 0 1 0-64 0Z"  /><path fill="currentColor" d="M800 224m-32 0a32 32 0 1 0 64 0 32 32 0 1 0-64 0Z"  /><path fill="currentColor" d="M308.352 715.648m-32 0a32 32 0 1 0 64 0 32 32 0 1 0-64 0Z"  /><path fill="currentColor" d="M224 800m-32 0a32 32 0 1 0 64 0 32 32 0 1 0-64 0Z"  /></svg>