<?xml version="1.0" standalone="no"?><!DOCTYPE svg PUBLIC "-//W3C//DTD SVG 1.1//EN" "http://www.w3.org/Graphics/SVG/1.1/DTD/svg11.dtd"><svg class="icon" width="32px" height="32.00px" viewBox="0 0 1024 1024" version="1.1" xmlns="http://www.w3.org/2000/svg"><path fill="currentColor" d="M672 64a287.936 287.936 0 0 0-275.584 371.584L64 768v192h192l332.416-332.416A288 288 0 1 0 672 64z m0 512a224.416 224.416 0 0 1-65.024-9.664l-36.704-11.136-27.104 27.104-101.792 101.792L397.248 640 352 685.248l44.128 44.128-50.752 50.752L301.248 736 256 781.248l44.128 44.128L229.504 896H128v-101.504l313.664-313.664 27.136-27.104-11.136-36.704A224 224 0 1 1 672 576zM704 320m-64 0a64 64 0 1 0 128 0 64 64 0 1 0-128 0Z" /></svg>