<?xml version="1.0" standalone="no"?><!DOCTYPE svg PUBLIC "-//W3C//DTD SVG 1.1//EN" "http://www.w3.org/Graphics/SVG/1.1/DTD/svg11.dtd"><svg class="icon" width="32px" height="32.00px" viewBox="0 0 1024 1024" version="1.1" xmlns="http://www.w3.org/2000/svg"><path fill="currentColor" d="M896 256h64V128a64.064 64.064 0 0 0-64-64h-128v64h128zM544 64h128v64h-128zM896 352h64v128h-64zM896 576v128h-128V320a64.064 64.064 0 0 0-64-64H320V128h128V64h-128a64.064 64.064 0 0 0-64 64v128H128a64.064 64.064 0 0 0-64 64v576a64.064 64.064 0 0 0 64 64h576a64.064 64.064 0 0 0 64-64v-128h128a64.064 64.064 0 0 0 64-64v-128z m-192 320H128V320h576z" /></svg>