<?xml version="1.0" standalone="no"?><!DOCTYPE svg PUBLIC "-//W3C//DTD SVG 1.1//EN" "http://www.w3.org/Graphics/SVG/1.1/DTD/svg11.dtd"><svg class="icon" width="32px" height="32.00px" viewBox="0 0 1024 1024" version="1.1" xmlns="http://www.w3.org/2000/svg"><path fill="currentColor" d="M924.16 960a32 32 0 0 1-28.16-16A486.08 486.08 0 0 0 480 704v192a32 32 0 0 1-19.84 29.44 32 32 0 0 1-34.88-6.72l-384-384a32 32 0 0 1 0-45.44l384-384a32 32 0 0 1 34.88-6.72A32 32 0 0 1 480 128v195.52a550.08 550.08 0 0 1 480 544 522.88 522.88 0 0 1-4.16 64 32 32 0 0 1-25.28 27.52zM464 640A563.84 563.84 0 0 1 896 832a489.92 489.92 0 0 0-450.88-448 32 32 0 0 1-29.12-32V205.12L109.12 512 416 818.88V672a32 32 0 0 1 32-32h17.28z" /></svg>