<?xml version="1.0" standalone="no"?><!DOCTYPE svg PUBLIC "-//W3C//DTD SVG 1.1//EN" "http://www.w3.org/Graphics/SVG/1.1/DTD/svg11.dtd"><svg class="icon" width="32px" height="32.00px" viewBox="0 0 1024 1024" version="1.1" xmlns="http://www.w3.org/2000/svg"><path fill="currentColor" d="M448 736h256v64h-256zM320 736h64v64h-64zM448 576h256v64h-256zM320 576h64v64h-64zM448 416h256v64h-256zM320 416h64v64h-64zM800 160h-96V128a64 64 0 0 0-64-64h-256a64 64 0 0 0-64 64v32H224a64 64 0 0 0-64 64v672a64 64 0 0 0 64 64h576a64 64 0 0 0 64-64V224a64 64 0 0 0-64-64zM384 128h256v128h-256z m416 768H224V224h96v96h384V224h96z" /></svg>