<?xml version="1.0" standalone="no"?><!DOCTYPE svg PUBLIC "-//W3C//DTD SVG 1.1//EN" "http://www.w3.org/Graphics/SVG/1.1/DTD/svg11.dtd"><svg class="icon" width="32px" height="32.00px" viewBox="0 0 1024 1024" version="1.1" xmlns="http://www.w3.org/2000/svg"><path fill="currentColor" d="M830.4 244.8l0.16-0.128c-2.944-3.52-6.304-6.592-9.376-9.984-5.888-6.56-11.744-13.12-18.016-19.296-4.448-4.352-9.152-8.384-13.76-12.512-5.856-5.28-11.712-10.528-17.856-15.424-5.12-4.096-10.4-7.904-15.68-11.744-6.144-4.48-12.32-8.864-18.72-12.992a432.416 432.416 0 0 0-17.056-10.368q-9.856-5.728-20-10.912c-5.888-3.008-11.84-5.92-17.92-8.64-7.104-3.2-14.368-6.112-21.696-8.96-6.08-2.304-12.096-4.64-18.272-6.656-7.872-2.624-15.936-4.8-24-6.944-5.952-1.568-11.776-3.264-17.792-4.576-9.28-2.016-18.784-3.424-28.256-4.8-5.12-0.736-10.08-1.792-15.232-2.336A413.856 413.856 0 0 0 192 246.496V128H128v256h256v-64H217.952A350.752 350.752 0 0 1 512 160a355.552 355.552 0 0 1 38.048 2.144c4.352 0.48 8.576 1.344 12.896 1.952 8 1.184 16.032 2.4 23.872 4.096 5.12 1.12 10.08 2.56 15.104 3.872 6.816 1.824 13.6 3.648 20.256 5.856 5.248 1.728 10.4 3.712 15.552 5.696 6.176 2.368 12.288 4.8 18.24 7.52 5.184 2.304 10.24 4.8 15.264 7.36q8.576 4.352 16.832 9.152c4.896 2.88 9.76 5.76 14.496 8.832 5.376 3.52 10.56 7.168 15.744 10.944 4.48 3.264 9.024 6.496 13.344 9.984 5.184 4.16 10.112 8.576 15.04 12.992 3.936 3.52 7.936 6.944 11.68 10.624 5.344 5.248 10.336 10.816 15.328 16.384A351.776 351.776 0 1 1 160 512H96a416 416 0 1 0 734.4-267.2z" /></svg>