<?xml version="1.0" standalone="no"?><!DOCTYPE svg PUBLIC "-//W3C//DTD SVG 1.1//EN" "http://www.w3.org/Graphics/SVG/1.1/DTD/svg11.dtd"><svg class="icon" width="32px" height="32.00px" viewBox="0 0 1024 1024" version="1.1" xmlns="http://www.w3.org/2000/svg"><path fill="currentColor" d="M886.72 297.28l-160-160A32 32 0 0 0 704 128H192a64 64 0 0 0-64 64v640a64 64 0 0 0 64 64h640a64 64 0 0 0 64-64V320a32 32 0 0 0-9.28-22.72zM384 192h256v128h-256z m256 640h-256v-256h256z m64 0v-256a64 64 0 0 0-64-64h-256a64 64 0 0 0-64 64v256H192V192h128v128a64 64 0 0 0 64 64h256a64 64 0 0 0 64-64V205.12l128 128V832z" /></svg>