<?xml version="1.0" standalone="no"?><!DOCTYPE svg PUBLIC "-//W3C//DTD SVG 1.1//EN" "http://www.w3.org/Graphics/SVG/1.1/DTD/svg11.dtd"><svg class="icon" width="32px" height="32.00px" viewBox="0 0 1024 1024" version="1.1" xmlns="http://www.w3.org/2000/svg"><path fill="currentColor" d="M704 768H320a64 64 0 0 1-64-64v-96h64v96h384v-96h64v96a64 64 0 0 1-64 64zM64 480h896v64H64zM768 416h-64v-96H320v96H256v-96a64 64 0 0 1 64-64h384a64 64 0 0 1 64 64zM960 320h-64V128h-192V64h256v256zM128 320H64V64h256v64H128v192zM320 960H64v-256h64v192h192v64zM960 960h-256v-64h192v-192h64v256z" /></svg>