<?xml version="1.0" standalone="no"?><!DOCTYPE svg PUBLIC "-//W3C//DTD SVG 1.1//EN" "http://www.w3.org/Graphics/SVG/1.1/DTD/svg11.dtd"><svg class="icon" width="32px" height="32.00px" viewBox="0 0 1024 1024" version="1.1" xmlns="http://www.w3.org/2000/svg"><path fill="currentColor" d="M864 800h-192a96 96 0 0 0-96 96v64h64v-64a32 32 0 0 1 32-32h192a32 32 0 0 1 32 32v64h64v-64a96 96 0 0 0-96-96zM640 640a128 128 0 1 0 128-128 128 128 0 0 0-128 128z m192 0a64 64 0 1 1-64-64 64 64 0 0 1 64 64zM192 672v-32H128v32a224 224 0 0 0 224 224h96v-64h-96a160 160 0 0 1-160-160zM608 320h224v64h-224zM608 192h320v64H608zM608 64h320v64H608zM352 352H160a96 96 0 0 0-96 96v64h64v-64a32 32 0 0 1 32-32h192a32 32 0 0 1 32 32v64h64v-64a96 96 0 0 0-96-96zM256 320a128 128 0 1 0-128-128 128 128 0 0 0 128 128z m0-192a64 64 0 1 1-64 64 64 64 0 0 1 64-64z" /></svg>