<?xml version="1.0" standalone="no"?><!DOCTYPE svg PUBLIC "-//W3C//DTD SVG 1.1//EN" "http://www.w3.org/Graphics/SVG/1.1/DTD/svg11.dtd"><svg class="icon" width="32px" height="32.00px" viewBox="0 0 1024 1024" version="1.1" xmlns="http://www.w3.org/2000/svg"><path fill="currentColor" d="M864 96H160a64 64 0 0 0-64 64v704a64 64 0 0 0 64 64h704a64 64 0 0 0 64-64V160a64 64 0 0 0-64-64z m0 64v128H160V160z m-320 192h320v224H544z m-64 224H160v-224h320zM160 640h320v224H160z m384 224v-224h320v224z" /></svg>