<?xml version="1.0" standalone="no"?><!DOCTYPE svg PUBLIC "-//W3C//DTD SVG 1.1//EN" "http://www.w3.org/Graphics/SVG/1.1/DTD/svg11.dtd"><svg class="icon" width="32px" height="32.00px" viewBox="0 0 1024 1024" version="1.1" xmlns="http://www.w3.org/2000/svg"><path fill="currentColor" d="M256 320h256v64H256zM256 192h384v64H256zM256 64h384v64H256zM150.752 896l180.192-319.872 237.888 207.68a64 64 0 0 0 98.688-17.088l223.04-332.896-53.152-35.648-224 334.336-2.24 3.296-237.92-207.68a64.096 64.096 0 0 0-98.56 16.96L128 805.856V64H64v832a64.064 64.064 0 0 0 64 64h832v-64z" /></svg>