<?xml version="1.0" standalone="no"?><!DOCTYPE svg PUBLIC "-//W3C//DTD SVG 1.1//EN" "http://www.w3.org/Graphics/SVG/1.1/DTD/svg11.dtd"><svg class="icon" width="32px" height="32.00px" viewBox="0 0 1024 1024" version="1.1" xmlns="http://www.w3.org/2000/svg"><path fill="currentColor" d="M512 896h448v64H512zM512 736h448v64H512zM347.072 960H416L276.48 640H203.52L64 960h68.928l25.6-64h162.944z m-162.944-128L240 692.32 295.872 832zM64 480h896v64H64zM512 224h448v64H512zM512 64h448v64H512zM347.072 384H416L276.48 64H203.52L64 384h68.928l25.6-64h162.944zM184.128 256L240 116.32 295.872 256z" /></svg>