<?xml version="1.0" standalone="no"?><!DOCTYPE svg PUBLIC "-//W3C//DTD SVG 1.1//EN" "http://www.w3.org/Graphics/SVG/1.1/DTD/svg11.dtd"><svg class="icon" width="32px" height="32.00px" viewBox="0 0 1024 1024" version="1.1" xmlns="http://www.w3.org/2000/svg"><path fill="currentColor" d="M285.248 784l136.224-136.224-45.248-45.248L240 738.752l-25.376-25.376a32 32 0 0 0-45.248 0l-128 128a32 32 0 0 0 0 45.248l96 96a32 32 0 0 0 45.248 0l128-128a32 32 0 0 0 0-45.248zM160 914.752L109.248 864 192 781.248 242.752 832zM768 960a192.224 192.224 0 0 1-192-192 186.88 186.88 0 0 1 6.72-49.504L305.536 441.28A187.136 187.136 0 0 1 256 448a191.232 191.232 0 0 1-178.464-261.888l17.856-45.472 105.984 105.984a32.736 32.736 0 0 0 45.216 0 31.968 31.968 0 0 0 0-45.248L140.64 95.328l45.536-17.824A191.264 191.264 0 0 1 448 256a186.88 186.88 0 0 1-6.72 49.504l277.216 277.216A187.36 187.36 0 0 1 768 576a191.232 191.232 0 0 1 178.464 261.888l-17.824 45.472-106.016-105.984a32.736 32.736 0 0 0-45.216 0 31.968 31.968 0 0 0-0.032 45.248l106.016 106.016-45.504 17.856A190.72 190.72 0 0 1 768 960zM321.984 367.232l334.752 334.752-7.648 19.52a127.2 127.2 0 0 0 110.912 174.24l-27.872-27.84a96 96 0 0 1 0-135.776 98.304 98.304 0 0 1 135.776 0l27.84 27.872a127.232 127.232 0 0 0-174.272-110.912l-19.488 7.648-334.72-334.72 7.68-19.52A127.2 127.2 0 0 0 264 128.256l27.84 27.84a96 96 0 0 1 0 135.776 98.304 98.304 0 0 1-135.776 0l-27.84-27.872a127.2 127.2 0 0 0 174.24 110.912zM931.936 91.2a98.304 98.304 0 0 0-135.776 0l-239.36 239.36 45.248 45.248 239.36-239.36a32.768 32.768 0 0 1 45.248 0 32.064 32.064 0 0 1 0 45.248l-239.36 239.36 45.248 45.28 239.36-239.36a96.096 96.096 0 0 0 0-135.776z" /></svg>