<?xml version="1.0" standalone="no"?><!DOCTYPE svg PUBLIC "-//W3C//DTD SVG 1.1//EN" "http://www.w3.org/Graphics/SVG/1.1/DTD/svg11.dtd"><svg class="icon" width="32px" height="32.00px" viewBox="0 0 1024 1024" version="1.1" xmlns="http://www.w3.org/2000/svg"><path fill="currentColor" d="M640 256h-64A160 160 0 0 0 256 256H192a224 224 0 0 1 448 0zM800 480a94.08 94.08 0 0 0-47.04 12.8A96 96 0 0 0 672 448a94.08 94.08 0 0 0-47.04 12.8A96 96 0 0 0 512 421.76V256a96 96 0 0 0-192 0v355.2l-71.36-48.64A93.76 93.76 0 0 0 192 544a96 96 0 0 0-67.84 164.16l256 233.6A197.12 197.12 0 0 0 512 992h160a224 224 0 0 0 224-224v-192a96 96 0 0 0-96-96z m32 288a160 160 0 0 1-160 160h-160a133.44 133.44 0 0 1-88.32-32l-254.4-233.6A32 32 0 0 1 160 640a32 32 0 0 1 51.2-25.6l172.8 118.4V256a32 32 0 0 1 64 0v352h64v-96a32 32 0 0 1 64 0v96h64v-64a32 32 0 0 1 64 0v64h64v-32a32 32 0 0 1 64 0z" /></svg>