<?xml version="1.0" standalone="no"?><!DOCTYPE svg PUBLIC "-//W3C//DTD SVG 1.1//EN" "http://www.w3.org/Graphics/SVG/1.1/DTD/svg11.dtd"><svg class="icon" width="32px" height="32.00px" viewBox="0 0 1024 1024" version="1.1" xmlns="http://www.w3.org/2000/svg"><path fill="currentColor" d="M672 768H352a64 64 0 0 0-64 64v64a64 64 0 0 0 64 64h320a64 64 0 0 0 64-64v-64a64 64 0 0 0-64-64z m0 128H352v-64h320zM918.624 457.376l-384-384a32 32 0 0 0-45.248 0l-384 384A32 32 0 0 0 128 512h160v128a64.064 64.064 0 0 0 64 64h320a64.096 64.096 0 0 0 64-64v-128h160a32 32 0 0 0 22.624-54.624zM672 448v192H352v-192H205.248L512 141.248 818.752 448z" /></svg>