<?xml version="1.0" standalone="no"?><!DOCTYPE svg PUBLIC "-//W3C//DTD SVG 1.1//EN" "http://www.w3.org/Graphics/SVG/1.1/DTD/svg11.dtd"><svg class="icon" width="32px" height="32.00px" viewBox="0 0 1024 1024" version="1.1" xmlns="http://www.w3.org/2000/svg"><path fill="currentColor" d="M512 128a160 160 0 1 1-160 160 160 160 0 0 1 160-160m0-64a224 224 0 1 0 224 224 224 224 0 0 0-224-224zM832 960h-64v-160a160 160 0 0 0-160-160h-192a160 160 0 0 0-160 160v160H192v-160a224 224 0 0 1 224-224h192a224 224 0 0 1 224 224z" /></svg>