<?xml version="1.0" standalone="no"?><!DOCTYPE svg PUBLIC "-//W3C//DTD SVG 1.1//EN" "http://www.w3.org/Graphics/SVG/1.1/DTD/svg11.dtd"><svg class="icon" width="32px" height="32.00px" viewBox="0 0 1024 1024" version="1.1" xmlns="http://www.w3.org/2000/svg"><path fill="currentColor" d="M855.968 797.76A447.68 447.68 0 1 0 64 512a444.768 444.768 0 0 0 104.032 285.76l-0.64 0.544c2.24 2.688 4.8 4.992 7.104 7.648 2.88 3.296 5.984 6.4 8.96 9.6 8.96 9.728 18.176 19.072 27.84 27.84 2.944 2.688 5.984 5.184 8.96 7.744 10.24 8.832 20.768 17.216 31.68 25.024 1.408 0.96 2.688 2.208 4.096 3.2v-0.384a444.832 444.832 0 0 0 512 0v0.384c1.408-0.992 2.656-2.24 4.096-3.2 10.88-7.84 21.44-16.192 31.68-25.024 2.976-2.56 6.016-5.088 8.96-7.744 9.664-8.8 18.88-18.112 27.84-27.84 2.976-3.2 6.048-6.304 8.96-9.6 2.272-2.656 4.864-4.96 7.104-7.68zM512 256a144 144 0 1 1-144 144A144 144 0 0 1 512 256zM256.224 797.76A159.872 159.872 0 0 1 416 640h192a159.872 159.872 0 0 1 159.776 157.76 382.08 382.08 0 0 1-511.552 0z" /></svg>