<?xml version="1.0" standalone="no"?><!DOCTYPE svg PUBLIC "-//W3C//DTD SVG 1.1//EN" "http://www.w3.org/Graphics/SVG/1.1/DTD/svg11.dtd"><svg class="icon" width="32px" height="32.00px" viewBox="0 0 1024 1024" version="1.1" xmlns="http://www.w3.org/2000/svg"><path fill="currentColor" d="M512 256a160 160 0 1 0 160 160 160 160 0 0 0-160-160z m0 256a96 96 0 1 1 96-96 96.096 96.096 0 0 1-96 96zM512 64a448 448 0 1 0 448 448A448.512 448.512 0 0 0 512 64z m-192 780.064V800a96.096 96.096 0 0 1 96-96h192a96.096 96.096 0 0 1 96 96v44.064a380.768 380.768 0 0 1-384 0z m447.744-46.432A160.064 160.064 0 0 0 608 640h-192a160.064 160.064 0 0 0-159.744 157.632 384 384 0 1 1 511.52 0z" /></svg>