<?xml version="1.0" standalone="no"?><!DOCTYPE svg PUBLIC "-//W3C//DTD SVG 1.1//EN" "http://www.w3.org/Graphics/SVG/1.1/DTD/svg11.dtd"><svg class="icon" width="32px" height="32.00px" viewBox="0 0 1024 1024" version="1.1" xmlns="http://www.w3.org/2000/svg"><path fill="currentColor" d="M704 869.76l-82.88-82.88L576 832l128 128 256-256-45.12-45.12L704 869.76zM288 544h224v64H288zM288 384h384v64H288zM288 224h384v64H288zM512 960H192c-35.296 0-64-28.704-64-64V128c0-35.296 28.704-64 64-64h576c35.296 0 64 28.704 64 64v480h-64V128H192v768h320v64z" /></svg>